# xmcd
# Copyright (C) 1995-1998 Ti Kan
#
# Track frame offsets:
#       150
#       11451
#       24651
#       77106
#       103193
#       161083
#       173537
#
# Disc length: 2692 seconds
#
# Revision: 0
# Processed by: cddbd v1.5.2PL0 Copyright (c) Steve Scherf et al.
# Submitted via: CD-Import v1.0
#
DISCID=490a8207
DTITLE=Tinu Heiniger - Mueterland
DYEAR=11
DGENRE=
TTITLE0=Mueterland
TTITLE1=Ein Traum
TTITLE2=Möbel, Teppiche, Vorhänge Und Aussteuern
TTITLE3=Bruder Heiniger
TTITLE4=Vater
TTITLE5=Lied Vom Vater
TTITLE6=Der Hugi
EXTD=
EXTT0=
EXTT1=
EXTT2=
EXTT3=
EXTT4=
EXTT5=
EXTT6=
PLAYORDER=
